<?xml version="1.0" encoding="utf-8"?>
<!DOCTYPE svg PUBLIC "-//W3C//DTD SVG 1.1//EN" "http://www.w3.org/Graphics/SVG/1.1/DTD/svg11.dtd">
<svg xmlns="http://www.w3.org/2000/svg" xmlns:xlink="http://www.w3.org/1999/xlink" version="1.1" baseProfile="full" width="120" height="180" viewBox="0 0 120.00 180.00" enable-background="new 0 0 120.00 180.00" xml:space="preserve">
	<path fill="#FFFFFF" fill-opacity="1" stroke-linejoin="round" stroke="#000000" stroke-opacity="1" d="M 25,5L 94.9999,5C 106.046,5 115,13.9543 115,25L 115,155C 115,166.046 106.046,175 94.9999,175L 25,175C 13.9543,175 5.00001,166.046 5.00001,155L 5.00001,25C 5.00001,13.9543 13.9543,5 25,5 Z "/>
	<path fill="none" stroke-linejoin="round" stroke="#000000" stroke-opacity="1" d="M 81.9999,53.5055L 98.4999,86.5054L 65.4999,86.5054L 81.9999,53.5055 Z "/>
	<rect x="65.4977" y="13.4969" fill="#000000" fill-opacity="1" stroke-linejoin="round" stroke="#000000" stroke-opacity="1" width="33" height="33"/>
	<ellipse fill="#FFFFFF" fill-opacity="1" stroke-linejoin="round" stroke="#000000" stroke-opacity="1" cx="36.9977" cy="29.9968" rx="16.5" ry="16.5"/>
	<path fill="#000000" fill-opacity="1" stroke-linejoin="round" stroke="#000000" stroke-opacity="1" d="M 20.4944,53.5001L 20.4944,86.5001L 53.4943,86.5001L 53.4943,69.3979L 36.4254,69.3979L 36.4254,53.5001L 20.4944,53.5001 Z "/>
	<rect x="65.4951" y="133.501" fill="none" stroke-linejoin="round" stroke="#000000" stroke-opacity="1" width="33" height="33"/>
	<ellipse fill="#000000" fill-opacity="1" stroke-linejoin="round" stroke="#000000" stroke-opacity="1" cx="36.9973" cy="150.003" rx="16.5" ry="16.5"/>
	<path fill="#000000" fill-opacity="1" stroke-linejoin="round" stroke="#000000" stroke-opacity="1" d="M 81.9909,93.5L 98.4908,126.5L 65.4909,126.5L 81.9909,93.5 Z "/>
	<path fill="none" stroke-linejoin="round" stroke="#000000" stroke-opacity="1" d="M 20.4944,93.5001L 20.4944,126.5L 53.4943,126.5L 53.4943,109.398L 36.4254,109.398L 36.4254,93.5001L 20.4944,93.5001 Z "/>
</svg>
