<?xml version="1.0" encoding="utf-8"?>
<!DOCTYPE svg PUBLIC "-//W3C//DTD SVG 1.1//EN" "http://www.w3.org/Graphics/SVG/1.1/DTD/svg11.dtd">
<svg xmlns="http://www.w3.org/2000/svg" xmlns:xlink="http://www.w3.org/1999/xlink" version="1.1" baseProfile="full" width="120" height="180" viewBox="0 0 120.00 180.00" enable-background="new 0 0 120.00 180.00" xml:space="preserve">
	<path fill="#FFFFFF" fill-opacity="1" stroke-linejoin="round" stroke="#000000" stroke-opacity="1" d="M 25,5L 94.9999,5C 106.046,5 115,13.9543 115,25L 115,155C 115,166.046 106.046,175 94.9999,175L 25,175C 13.9543,175 5.00001,166.046 5.00001,155L 5.00001,25C 5.00001,13.9543 13.9543,5 25,5 Z "/>
	<path fill="#000000" fill-opacity="1" stroke-linejoin="round" stroke="#000000" stroke-opacity="1" d="M 65.4934,133.506L 65.4934,166.506L 98.4933,166.506L 98.4933,149.404L 81.4244,149.404L 81.4244,133.506L 65.4934,133.506 Z "/>
	<ellipse fill="#000000" fill-opacity="1" stroke-linejoin="round" stroke="#000000" stroke-opacity="1" cx="82" cy="70.0123" rx="16.5" ry="16.5"/>
	<path fill="#000000" fill-opacity="1" stroke-linejoin="round" stroke="#000000" stroke-opacity="1" d="M 36.9996,13.506L 53.4996,46.506L 20.4996,46.506L 36.9996,13.506 Z "/>
	<path fill="none" stroke-linejoin="round" stroke="#000000" stroke-opacity="1" d="M 65.4936,13.5001L 65.4936,46.5001L 98.4936,46.5001L 98.4936,29.3979L 81.4246,29.3979L 81.4246,13.5001L 65.4936,13.5001 Z "/>
	<rect x="20.4936" y="53.5061" fill="none" stroke-linejoin="round" stroke="#000000" stroke-opacity="1" width="33" height="33"/>
	<path fill="none" stroke-linejoin="round" stroke="#000000" stroke-opacity="1" d="M 36.9937,133.506L 53.4937,166.506L 20.4938,166.506L 36.9937,133.506 Z "/>
	<ellipse fill="none" stroke-linejoin="round" stroke="#000000" stroke-opacity="1" cx="81.9937" cy="110.006" rx="16.5" ry="16.5"/>
	<rect x="20.4936" y="93.506" fill="#000000" fill-opacity="1" stroke-linejoin="round" stroke="#000000" stroke-opacity="1" width="33" height="33"/>
</svg>
