<?xml version="1.0" encoding="utf-8"?>
<!DOCTYPE svg PUBLIC "-//W3C//DTD SVG 1.1//EN" "http://www.w3.org/Graphics/SVG/1.1/DTD/svg11.dtd">
<svg xmlns="http://www.w3.org/2000/svg" xmlns:xlink="http://www.w3.org/1999/xlink" version="1.1" baseProfile="full" width="120" height="180" viewBox="0 0 120.00 180.00" enable-background="new 0 0 120.00 180.00" xml:space="preserve">
	<path fill="#FFFFFF" fill-opacity="1" stroke-linejoin="round" stroke="#000000" stroke-opacity="1" d="M 25,5L 94.9999,5C 106.046,5 115,13.9543 115,25L 115,155C 115,166.046 106.046,175 94.9999,175L 25,175C 13.9543,175 5.00001,166.046 5.00001,155L 5.00001,25C 5.00001,13.9543 13.9543,5 25,5 Z "/>
	<path fill="#000000" fill-opacity="1" stroke-linejoin="round" stroke="#000000" stroke-opacity="1" d="M 81.9983,133.498L 98.4983,166.498L 65.4983,166.498L 81.9983,133.498 Z "/>
	<rect x="20.4983" y="133.502" fill="none" stroke-linejoin="round" stroke="#000000" stroke-opacity="1" width="33" height="33"/>
	<ellipse fill="#000000" fill-opacity="1" stroke-linejoin="round" stroke="#000000" stroke-opacity="1" cx="36.9983" cy="110.002" rx="16.5" ry="16.5"/>
	<path fill="#FFFFFF" fill-opacity="1" stroke-linejoin="round" stroke="#000000" stroke-opacity="1" d="M 65.4983,93.5023L 65.4983,126.502L 98.4982,126.502L 98.4982,109.4L 81.4293,109.4L 81.4293,93.5023L 65.4983,93.5023 Z "/>
	<path fill="none" stroke-linejoin="round" stroke="#000000" stroke-opacity="1" d="M 81.9983,13.5045L 98.4983,46.5045L 65.4983,46.5045L 81.9983,13.5045 Z "/>
	<rect x="20.4983" y="13.5023" fill="#000000" fill-opacity="1" stroke-linejoin="round" stroke="#000000" stroke-opacity="1" width="33" height="33"/>
	<ellipse fill="#FFFFFF" fill-opacity="1" stroke-linejoin="round" stroke="#000000" stroke-opacity="1" cx="36.9983" cy="70.0023" rx="16.5" ry="16.5"/>
	<path fill="#000000" fill-opacity="1" stroke-linejoin="round" stroke="#000000" stroke-opacity="1" d="M 65.4982,53.5024L 65.4982,86.5024L 98.4982,86.5024L 98.4982,69.4002L 81.4293,69.4002L 81.4293,53.5024L 65.4982,53.5024 Z "/>
</svg>
