<?xml version="1.0" encoding="utf-8"?>
<!DOCTYPE svg PUBLIC "-//W3C//DTD SVG 1.1//EN" "http://www.w3.org/Graphics/SVG/1.1/DTD/svg11.dtd">
<svg xmlns="http://www.w3.org/2000/svg" xmlns:xlink="http://www.w3.org/1999/xlink" version="1.1" baseProfile="full" width="120" height="180" viewBox="0 0 120.00 180.00" enable-background="new 0 0 120.00 180.00" xml:space="preserve">
	<path fill="#FFFFFF" fill-opacity="1" stroke-linejoin="round" stroke="#000000" stroke-opacity="1" d="M 25,5L 94.9999,5C 106.046,5 115,13.9543 115,25L 115,155C 115,166.046 106.046,175 94.9999,175L 25,175C 13.9543,175 5.00001,166.046 5.00001,155L 5.00001,25C 5.00001,13.9543 13.9543,5 25,5 Z "/>
	<path fill="none" stroke-linejoin="round" stroke="#000000" stroke-opacity="1" d="M 36.9943,93.4998L 20.4943,126.5L 53.4942,126.5L 36.9943,93.4998 Z "/>
	<rect x="20.4965" y="133.503" fill="#000000" fill-opacity="1" stroke-linejoin="round" stroke="#000000" stroke-opacity="1" width="33" height="33"/>
	<ellipse fill="#FFFFFF" fill-opacity="1" stroke-linejoin="round" stroke="#000000" stroke-opacity="1" cx="81.9965" cy="150.003" rx="16.5" ry="16.5"/>
	<path fill="#000000" fill-opacity="1" stroke-linejoin="round" stroke="#000000" stroke-opacity="1" d="M 65.4996,93.4945L 65.4996,126.494L 98.4995,126.494L 98.4995,109.392L 81.4306,109.392L 81.4306,93.4945L 65.4996,93.4945 Z "/>
	<rect x="20.4991" y="13.4991" fill="none" stroke-linejoin="round" stroke="#000000" stroke-opacity="1" width="33" height="33"/>
	<ellipse fill="#000000" fill-opacity="1" stroke-linejoin="round" stroke="#000000" stroke-opacity="1" cx="81.9969" cy="29.9969" rx="16.5" ry="16.5"/>
	<path fill="#000000" fill-opacity="1" stroke-linejoin="round" stroke="#000000" stroke-opacity="1" d="M 37.0033,53.4999L 20.5033,86.4999L 53.5033,86.4999L 37.0033,53.4999 Z "/>
	<path fill="none" stroke-linejoin="round" stroke="#000000" stroke-opacity="1" d="M 65.4996,53.5L 65.4996,86.4999L 98.4995,86.4999L 98.4995,69.3978L 81.4306,69.3978L 81.4306,53.5L 65.4996,53.5 Z "/>
</svg>
